Coordinates
version=1
nRows=13
nColumns=22
inDegrees=yes

Units are S.I. units (second, meters, Newtons, ...)
If the header above contains a line with 'inDegrees', this indicates whether rotational values are in degrees (yes) or radians (no).

endheader
time	pelvis_tilt	pelvis_list	pelvis_rotation	pelvis_tx	pelvis_ty	pelvis_tz	hip_flexion_r	hip_adduction_r	hip_rotation_r	knee_angle_r	ankle_angle_r	subtalar_angle_r	hip_flexion_l	hip_adduction_l	hip_rotation_l	knee_angle_l	ankle_angle_l	subtalar_angle_l	lumbar_extension	lumbar_bending	lumbar_rotation
      0.01000000	    -12.82966897	     -2.23642119	     -2.43999887	     -0.71332556	      0.98008279	      0.23796135	     19.28136067	      3.96333413	     -3.71617133	    -16.60524804	     15.33059843	     -6.94326485	     20.27399464	     -1.34622926	     -6.08716996	    -17.88452378	     17.72996797	     -2.04709678	      7.12352538	      3.71651479	      4.81368033
      0.02000000	    -12.82740485	     -2.23836835	     -2.43075518	     -0.71336803	      0.98009130	      0.23787982	     19.28178912	      3.95913605	     -3.71273558	    -16.60619799	     15.32887568	     -6.94209659	     20.27278757	     -1.34296590	     -6.09214612	    -17.88121296	     17.72912780	     -2.04735881	      7.12769446	      3.72637227	      4.81512703
      0.03000000	    -12.82446468	     -2.23951758	     -2.42131980	     -0.71340951	      0.98010531	      0.23777781	     19.28242871	      3.95264750	     -3.70960508	    -16.60862456	     15.32677899	     -6.94065345	     20.26926287	     -1.33765212	     -6.09897506	    -17.87403347	     17.72697445	     -2.04747294	      7.13430666	      3.73759211	      4.81642919
      0.04000000	    -12.82235472	     -2.23304597	     -2.42318626	     -0.71341940	      0.98013065	      0.23767816	     19.28633914	      3.93895279	     -3.71241556	    -16.61667119	     15.31704145	     -6.92989901	     20.24409890	     -1.32616610	     -6.12291679	    -17.82662152	     17.70762582	     -2.04747458	      7.14955548	      3.74442483	      4.81090637
      0.05000000	    -12.81469127	     -2.23364140	     -2.41444844	     -0.71345574	      0.98014881	      0.23755946	     19.28317329	      3.93050262	     -3.70854832	    -16.62213681	     15.31617320	     -6.92864956	     20.23927443	     -1.31909425	     -6.12477024	    -17.82712371	     17.70538555	     -2.04753012	      7.15756531	      3.75505141	      4.81575243
      0.06000000	    -12.74488686	     -2.20991323	     -2.41022750	     -0.71345296	      0.98027720	      0.23742753	     19.21829731	      3.89116519	     -3.72290174	    -16.63727233	     15.33168607	     -6.87351524	     20.14091566	     -1.27934816	     -6.11754914	    -17.77804634	     17.66207251	     -2.05522069	      7.09128113	      3.73540041	      4.83471427
      0.07000000	    -12.72176507	     -2.22542939	     -2.40491294	     -0.71352015	      0.98030423	      0.23731556	     19.20860314	      3.89941386	     -3.71217607	    -16.65948089	     15.33445917	     -6.86747950	     20.12792947	     -1.28776046	     -6.10524110	    -17.79122893	     17.67171618	     -2.05775537	      7.07450869	      3.76431447	      4.82207904
      0.08000000	    -12.66944155	     -2.26409498	     -2.37679420	     -0.71354739	      0.98037213	      0.23718316	     19.14803820	      3.92216530	     -3.75272126	    -16.64924737	     15.33718905	     -6.84293551	     20.09129929	     -1.31341434	     -6.06865348	    -17.81981337	     17.70286017	     -2.06760885	      7.02795074	      3.81144463	      4.79410571
      0.09000000	    -12.64674778	     -2.27218380	     -2.37125778	     -0.71363333	      0.98038709	      0.23708531	     19.14335291	      3.92348341	     -3.74194241	    -16.67680408	     15.33477139	     -6.83967279	     20.08881060	     -1.31367622	     -6.04275044	    -17.85002830	     17.70196239	     -2.06860244	      7.00945753	      3.82508983	      4.79169281
      0.10000000	    -12.60781123	     -2.30750531	     -2.34322952	     -0.71369590	      0.98041237	      0.23697058	     19.11253037	      3.94407766	     -3.78135807	    -16.69244589	     15.34963325	     -6.82640710	     20.07930558	     -1.33734997	     -5.99658047	    -17.89893285	     17.73453325	     -2.07661076	      6.97440741	      3.86390099	      4.75963885
      0.11000000	    -12.58537185	     -2.31492219	     -2.33791891	     -0.71377775	      0.98041726	      0.23688646	     19.11113922	      3.94562209	     -3.76827601	    -16.72593494	     15.34693563	     -6.82360319	     20.08150813	     -1.33808327	     -5.96757602	    -17.93822903	     17.73691960	     -2.07794011	      6.95616374	      3.87228491	      4.75594066
      0.12000000	    -12.56008533	     -2.32642714	     -2.32854014	     -0.71385596	      0.98041880	      0.23679988	     19.10927645	      3.94952638	     -3.76563948	    -16.76538521	     15.35456465	     -6.82107534	     20.08557490	     -1.34257509	     -5.93575022	    -17.98684296	     17.74949673	     -2.08067163	      6.93401261	      3.88275202	      4.75214644
      0.13000000	    -12.53418364	     -2.33832128	     -2.31676027	     -0.71392040	      0.98041847	      0.23670844	     19.10656630	      3.95246499	     -3.76971228	    -16.80718661	     15.36799305	     -6.81802698	     20.08896550	     -1.34669352	     -5.90486753	    -18.03553713	     17.76857329	     -2.08461247	      6.91278335	      3.89264007	      4.74666440
